# xmcd
#
# Track frame offsets: 
#        150
#        12803
#        25906
#        41998
#        52316
#        64932
#        73737
#        89743
#        100755
#        112102
#        129514
#        142920
#        156792
#        175674
#        193428
#        211375
#        225201
#        236590
#        253171
#        268113
#        277776
#        289081
#        301576
#        330389
#
# Disc length: 4676 seconds
#
# Revision: 7
# Processed by: cddbd v1.5.2PL0 Copyright (c) Steve Scherf et al.
# Submitted via: ExactAudioCopy v1.0b3
#
DISCID=60124218
DTITLE=Gram Parsons - Sacred Hearts and Fallen Angels: The Gram Parsons 
DTITLE=Anthology [CD1]
DYEAR=2001
DGENRE=Country
TTITLE0=The International Submarine Band - Blue Eyes
TTITLE1=The International Submarine Band - Luxury Liner
TTITLE2=The International Submarine Band - Do You Know How It Feels to
TTITLE2=Be Lonesome?
TTITLE3=The International Submarine Band - I Must Be Somebody Else You
TTITLE3='ve Known
TTITLE4=The International Submarine Band - Miller's Cave
TTITLE5=The International Submarine Band - Knee Deep in the Blues
TTITLE6=The Byrds - Hickory Wind
TTITLE7=The Byrds - You're Still on My Mind
TTITLE8=The Byrds - The Christian Life
TTITLE9=The Byrds - You Don't Miss Your Water
TTITLE10=The Byrds - One Hundred Years from Now
TTITLE11=The Flying Burrito Brothers - Christine's Tune (Devil in Disg
TTITLE11=uise)
TTITLE12=The Flying Burrito Brothers - Sin City
TTITLE13=The Flying Burrito Brothers - Do Right Woman
TTITLE14=The Flying Burrito Brothers - Dark End of the Street
TTITLE15=The Flying Burrito Brothers - Wheels
TTITLE16=The Flying Burrito Brothers - Juanita
TTITLE17=The Flying Burrito Brothers - Hot Burrito #1
TTITLE18=The Flying Burrito Brothers - Hot Burrito #2
TTITLE19=The Flying Burrito Brothers - High Fashion Queen
TTITLE20=The Flying Burrito Brothers - Older Guys
TTITLE21=The Flying Burrito Brothers - Cody, Cody
TTITLE22=The Flying Burrito Brothers - Wild Horses
TTITLE23=The Flying Burrito Brothers - Sing Me Back Home
EXTD=YEAR: 2001 ID3G:   2 YEAR: 2001 ID3G:   2
EXTT0=
EXTT1=
EXTT2=
EXTT3=
EXTT4=
EXTT5=
EXTT6=
EXTT7=
EXTT8=
EXTT9=
EXTT10=
EXTT11=
EXTT12=
EXTT13=
EXTT14=
EXTT15=
EXTT16=
EXTT17=
EXTT18=
EXTT19=
EXTT20=
EXTT21=
EXTT22=
EXTT23=
PLAYORDER=
